<svg id="visual" viewBox="0 0 1400 1900" width="1400" height="1900" xmlns="http://www.w3.org/2000/svg" xmlns:xlink="http://www.w3.org/1999/xlink" version="1.1"><rect x="0" y="0" width="1400" height="1900" fill="#001220"></rect><defs><linearGradient id="grad1_0" x1="0%" y1="0%" x2="100%" y2="100%"><stop offset="30%" stop-color="#c62368" stop-opacity="1"></stop><stop offset="70%" stop-color="#c62368" stop-opacity="1"></stop></linearGradient></defs><defs><linearGradient id="grad1_1" x1="0%" y1="0%" x2="100%" y2="100%"><stop offset="30%" stop-color="#c62368" stop-opacity="1"></stop><stop offset="70%" stop-color="#962972" stop-opacity="1"></stop></linearGradient></defs><defs><linearGradient id="grad1_2" x1="0%" y1="0%" x2="100%" y2="100%"><stop offset="30%" stop-color="#632e6d" stop-opacity="1"></stop><stop offset="70%" stop-color="#962972" stop-opacity="1"></stop></linearGradient></defs><defs><linearGradient id="grad1_3" x1="0%" y1="0%" x2="100%" y2="100%"><stop offset="30%" stop-color="#632e6d" stop-opacity="1"></stop><stop offset="70%" stop-color="#342a5b" stop-opacity="1"></stop></linearGradient></defs><defs><linearGradient id="grad1_4" x1="0%" y1="0%" x2="100%" y2="100%"><stop offset="30%" stop-color="#0f213f" stop-opacity="1"></stop><stop offset="70%" stop-color="#342a5b" stop-opacity="1"></stop></linearGradient></defs><defs><linearGradient id="grad1_5" x1="0%" y1="0%" x2="100%" y2="100%"><stop offset="30%" stop-color="#0f213f" stop-opacity="1"></stop><stop offset="70%" stop-color="#001220" stop-opacity="1"></stop></linearGradient></defs><defs><linearGradient id="grad2_0" x1="0%" y1="0%" x2="100%" y2="100%"><stop offset="30%" stop-color="#c62368" stop-opacity="1"></stop><stop offset="70%" stop-color="#c62368" stop-opacity="1"></stop></linearGradient></defs><defs><linearGradient id="grad2_1" x1="0%" y1="0%" x2="100%" y2="100%"><stop offset="30%" stop-color="#962972" stop-opacity="1"></stop><stop offset="70%" stop-color="#c62368" stop-opacity="1"></stop></linearGradient></defs><defs><linearGradient id="grad2_2" x1="0%" y1="0%" x2="100%" y2="100%"><stop offset="30%" stop-color="#962972" stop-opacity="1"></stop><stop offset="70%" stop-color="#632e6d" stop-opacity="1"></stop></linearGradient></defs><defs><linearGradient id="grad2_3" x1="0%" y1="0%" x2="100%" y2="100%"><stop offset="30%" stop-color="#342a5b" stop-opacity="1"></stop><stop offset="70%" stop-color="#632e6d" stop-opacity="1"></stop></linearGradient></defs><defs><linearGradient id="grad2_4" x1="0%" y1="0%" x2="100%" y2="100%"><stop offset="30%" stop-color="#342a5b" stop-opacity="1"></stop><stop offset="70%" stop-color="#0f213f" stop-opacity="1"></stop></linearGradient></defs><defs><linearGradient id="grad2_5" x1="0%" y1="0%" x2="100%" y2="100%"><stop offset="30%" stop-color="#001220" stop-opacity="1"></stop><stop offset="70%" stop-color="#0f213f" stop-opacity="1"></stop></linearGradient></defs><g transform="translate(1400, 0)"><path d="M0 708C-123.6 689.4 -247.2 670.7 -354 613.2C-460.8 555.6 -550.9 459.2 -607.1 350.5C-663.3 241.8 -685.7 120.9 -708 0L0 0Z" fill="#051a30"></path><path d="M0 590C-103 574.5 -206 558.9 -295 511C-384 463 -459.1 382.6 -505.9 292.1C-552.7 201.5 -571.4 100.8 -590 0L0 0Z" fill="#20264e"></path><path d="M0 472C-82.4 459.6 -164.8 447.1 -236 408.8C-307.2 370.4 -367.3 306.1 -404.7 233.7C-442.2 161.2 -457.1 80.6 -472 0L0 0Z" fill="#4b2d66"></path><path d="M0 354C-61.8 344.7 -123.6 335.4 -177 306.6C-230.4 277.8 -275.4 229.6 -303.5 175.3C-331.6 120.9 -342.8 60.5 -354 0L0 0Z" fill="#7d2c71"></path><path d="M0 236C-41.2 229.8 -82.4 223.6 -118 204.4C-153.6 185.2 -183.6 153.1 -202.4 116.8C-221.1 80.6 -228.6 40.3 -236 0L0 0Z" fill="#af256f"></path><path d="M0 118C-20.6 114.9 -41.2 111.8 -59 102.2C-76.8 92.6 -91.8 76.5 -101.2 58.4C-110.5 40.3 -114.3 20.2 -118 0L0 0Z" fill="#c62368"></path></g><g transform="translate(0, 1900)"><path d="M0 -708C91.8 -635.3 183.7 -562.6 296 -512.7C408.3 -462.8 541.1 -435.7 613.2 -354C685.2 -272.4 696.6 -136.2 708 0L0 0Z" fill="#051a30"></path><path d="M0 -590C76.5 -529.4 153.1 -468.8 246.7 -427.2C340.3 -385.6 450.9 -363.1 511 -295C571 -227 580.5 -113.5 590 0L0 0Z" fill="#20264e"></path><path d="M0 -472C61.2 -423.5 122.5 -375.1 197.3 -341.8C272.2 -308.5 360.7 -290.4 408.8 -236C456.8 -181.6 464.4 -90.8 472 0L0 0Z" fill="#4b2d66"></path><path d="M0 -354C45.9 -317.7 91.8 -281.3 148 -256.3C204.2 -231.4 270.5 -217.8 306.6 -177C342.6 -136.2 348.3 -68.1 354 0L0 0Z" fill="#7d2c71"></path><path d="M0 -236C30.6 -211.8 61.2 -187.5 98.7 -170.9C136.1 -154.3 180.4 -145.2 204.4 -118C228.4 -90.8 232.2 -45.4 236 0L0 0Z" fill="#af256f"></path><path d="M0 -118C15.3 -105.9 30.6 -93.8 49.3 -85.4C68.1 -77.1 90.2 -72.6 102.2 -59C114.2 -45.4 116.1 -22.7 118 0L0 0Z" fill="#c62368"></path></g></svg>