<svg id="visual" viewBox="0 0 900 600" width="900" height="600" xmlns="http://www.w3.org/2000/svg" xmlns:xlink="http://www.w3.org/1999/xlink" version="1.1"><g transform="translate(444.17518204246414 308.17625058474397)"><path d="M144.9 -207.1C185.1 -170.2 213.4 -124.3 233.2 -73.4C253 -22.5 264.4 33.6 246.7 77.7C228.9 121.8 182.1 153.9 136.1 183.2C90.1 212.4 45.1 238.7 -6.4 247.5C-57.8 256.2 -115.6 247.4 -158.4 217.2C-201.2 186.9 -229 135.2 -239.2 82.7C-249.5 30.2 -242.2 -23.1 -221.4 -67.3C-200.7 -111.6 -166.5 -146.8 -127.3 -184.1C-88.2 -221.4 -44.1 -260.7 4.1 -266.3C52.3 -272 104.6 -244 144.9 -207.1" fill="none" stroke="#BB004B" stroke-width="6"></path></g></svg>