<svg id="visual" viewBox="0 0 900 450" width="900" height="450" xmlns="http://www.w3.org/2000/svg" xmlns:xlink="http://www.w3.org/1999/xlink" version="1.1">
    <rect x="0" y="0" width="900" height="450" fill="#001220">

    </rect>
    <path d="M0 301L12.5 302.5C25 304 50 307 75 306.8C100 306.7 125 303.3 150 303.3C175 303.3 200 306.7 225 307.2C250 307.7 275 305.3 300 303.3C325 301.3 350 299.7 375 299.8C400 300 425 302 450 304C475 306 500 308 525 305.3C550 302.7 575 295.3 600 293.5C625 291.7 650 295.3 675 296.8C700 298.3 725 297.7 750 297.5C775 297.3 800 297.7 825 297.3C850 297 875 296 887.5 295.5L900 295L900 451L887.5 451C875 451 850 451 825 451C800 451 775 451 750 451C725 451 700 451 675 451C650 451 625 451 600 451C575 451 550 451 525 451C500 451 475 451 450 451C425 451 400 451 375 451C350 451 325 451 300 451C275 451 250 451 225 451C200 451 175 451 150 451C125 451 100 451 75 451C50 451 25 451 12.5 451L0 451Z" fill="#fa7268"></path><path d="M0 326L12.5 326.2C25 326.3 50 326.7 75 324.2C100 321.7 125 316.3 150 312.8C175 309.3 200 307.7 225 309.8C250 312 275 318 300 320.3C325 322.7 350 321.3 375 320.7C400 320 425 320 450 320.2C475 320.3 500 320.7 525 321C550 321.3 575 321.7 600 320.7C625 319.7 650 317.3 675 317.3C700 317.3 725 319.7 750 322C775 324.3 800 326.7 825 327C850 327.3 875 325.7 887.5 324.8L900 324L900 451L887.5 451C875 451 850 451 825 451C800 451 775 451 750 451C725 451 700 451 675 451C650 451 625 451 600 451C575 451 550 451 525 451C500 451 475 451 450 451C425 451 400 451 375 451C350 451 325 451 300 451C275 451 250 451 225 451C200 451 175 451 150 451C125 451 100 451 75 451C50 451 25 451 12.5 451L0 451Z" fill="#f36567"></path><path d="M0 334L12.5 335.3C25 336.7 50 339.3 75 342.5C100 345.7 125 349.3 150 347.7C175 346 200 339 225 336.3C250 333.7 275 335.3 300 337.8C325 340.3 350 343.7 375 342.8C400 342 425 337 450 337.7C475 338.3 500 344.7 525 348C550 351.3 575 351.7 600 349.8C625 348 650 344 675 341.2C700 338.3 725 336.7 750 339C775 341.3 800 347.7 825 348.3C850 349 875 344 887.5 341.5L900 339L900 451L887.5 451C875 451 850 451 825 451C800 451 775 451 750 451C725 451 700 451 675 451C650 451 625 451 600 451C575 451 550 451 525 451C500 451 475 451 450 451C425 451 400 451 375 451C350 451 325 451 300 451C275 451 250 451 225 451C200 451 175 451 150 451C125 451 100 451 75 451C50 451 25 451 12.5 451L0 451Z" fill="#eb5967"></path><path d="M0 359L12.5 359.2C25 359.3 50 359.7 75 359.8C100 360 125 360 150 360.2C175 360.3 200 360.7 225 362.8C250 365 275 369 300 370.3C325 371.7 350 370.3 375 366.8C400 363.3 425 357.7 450 355.5C475 353.3 500 354.7 525 355.5C550 356.3 575 356.7 600 359.7C625 362.7 650 368.3 675 370.5C700 372.7 725 371.3 750 369.7C775 368 800 366 825 364.8C850 363.7 875 363.3 887.5 363.2L900 363L900 451L887.5 451C875 451 850 451 825 451C800 451 775 451 750 451C725 451 700 451 675 451C650 451 625 451 600 451C575 451 550 451 525 451C500 451 475 451 450 451C425 451 400 451 375 451C350 451 325 451 300 451C275 451 250 451 225 451C200 451 175 451 150 451C125 451 100 451 75 451C50 451 25 451 12.5 451L0 451Z" fill="#e34c67"></path><path d="M0 383L12.5 381.3C25 379.7 50 376.3 75 377.8C100 379.3 125 385.7 150 385.8C175 386 200 380 225 380.3C250 380.7 275 387.3 300 388C325 388.7 350 383.3 375 381.7C400 380 425 382 450 383.2C475 384.3 500 384.7 525 383.5C550 382.3 575 379.7 600 380C625 380.3 650 383.7 675 383.8C700 384 725 381 750 381.2C775 381.3 800 384.7 825 384C850 383.3 875 378.7 887.5 376.3L900 374L900 451L887.5 451C875 451 850 451 825 451C800 451 775 451 750 451C725 451 700 451 675 451C650 451 625 451 600 451C575 451 550 451 525 451C500 451 475 451 450 451C425 451 400 451 375 451C350 451 325 451 300 451C275 451 250 451 225 451C200 451 175 451 150 451C125 451 100 451 75 451C50 451 25 451 12.5 451L0 451Z" fill="#da3f67"></path><path d="M0 405L12.5 405.2C25 405.3 50 405.7 75 406C100 406.3 125 406.7 150 407.7C175 408.7 200 410.3 225 410.7C250 411 275 410 300 407.3C325 404.7 350 400.3 375 398.2C400 396 425 396 450 399C475 402 500 408 525 407.5C550 407 575 400 600 397.7C625 395.3 650 397.7 675 400.3C700 403 725 406 750 407.3C775 408.7 800 408.3 825 407.5C850 406.7 875 405.3 887.5 404.7L900 404L900 451L887.5 451C875 451 850 451 825 451C800 451 775 451 750 451C725 451 700 451 675 451C650 451 625 451 600 451C575 451 550 451 525 451C500 451 475 451 450 451C425 451 400 451 375 451C350 451 325 451 300 451C275 451 250 451 225 451C200 451 175 451 150 451C125 451 100 451 75 451C50 451 25 451 12.5 451L0 451Z" fill="#d03267"></path><path d="M0 427L12.5 426.5C25 426 50 425 75 424.8C100 424.7 125 425.3 150 424.3C175 423.3 200 420.7 225 421.7C250 422.7 275 427.3 300 427.7C325 428 350 424 375 423.3C400 422.7 425 425.3 450 426.8C475 428.3 500 428.7 525 427.8C550 427 575 425 600 423.8C625 422.7 650 422.3 675 423.2C700 424 725 426 750 425.7C775 425.3 800 422.7 825 423.8C850 425 875 430 887.5 432.5L900 435L900 451L887.5 451C875 451 850 451 825 451C800 451 775 451 750 451C725 451 700 451 675 451C650 451 625 451 600 451C575 451 550 451 525 451C500 451 475 451 450 451C425 451 400 451 375 451C350 451 325 451 300 451C275 451 250 451 225 451C200 451 175 451 150 451C125 451 100 451 75 451C50 451 25 451 12.5 451L0 451Z" fill="#c62368"></path>
</svg>